<svg xmlns="http://www.w3.org/2000/svg" viewBox="0 0 1120.8929 402.84804">
   
   
   <g>
      <path d="m 263.79848,341.61758 c -13.71,0.1 -27.42109,-0.0792 -41.12109,0.0908 0.18,2.53001 3.24097,2.32974 5.00098,3.21973 4.20999,1.18001 7.90003,5.00078 7.79004,9.55079 0.03,11.68999 0.0203,23.37982 0.0103,35.06982 0.17,4.6 -3.51125,8.52898 -7.78125,9.70899 -1.82,0.85999 -4.68963,0.72042 -5.11963,3.19042 13.74,0.32 27.48975,0.0196 41.23975,0.15967 1.67,-0.24 3.94052,0.58105 5.04053,-1.16894 -2.1,-1.16001 -4.39989,-1.83137 -6.62989,-2.65137 -3.73,-1.45 -6.65976,-5.14902 -6.50976,-9.24903 -0.06,-11.01 0.0289,-22.02075 -0.041,-33.03075 -0.15999,-3.03 0.39016,-6.26973 2.66016,-8.46973 2.74,-3.14 7.2198,-3.20916 10.5498,-5.38916 -1.28,-1.52001 -3.39886,-0.86125 -5.08887,-1.03125 z"/>
      <path d="m 349.1183,341.48867 c -10.46,0.42 -20.94039,-0.071 -31.40039,0.24903 l 0.27979,1.60107 c 4.28,1.65 9.11059,4.13908 9.60058,9.30908 0.34,12.3 0.0692,24.62017 0.13917,36.93018 0.16999,4.45999 -3.32874,8.31982 -7.44873,9.56982 -1.97001,0.85 -4.62087,0.89107 -5.63087,3.10108 7.01,0.72999 14.09063,0.12863 21.14063,0.34863 2.02,-0.19 4.45986,0.56123 6.10986,-0.98877 -2.24,-1.82 -5.29089,-2.86055 -6.67089,-5.56055 -1.51001,-2.56 -1.56981,-5.62024 -1.54981,-8.49023 0.07,-10.84001 -0.0599,-21.67049 0.0601,-32.50049 2.29,4.32 3.66979,9.13123 6.27979,13.26123 l -0.29004,0.89941 c 0.31,0.41 0.92047,1.23063 1.23047,1.64063 4.51,10.74 9.49033,21.27926 14.09033,31.98926 2.92,-1.43 4.54008,-4.38022 5.83008,-7.22022 5.87,-13.13 11.70914,-26.2799 17.61914,-39.3999 0.03,10.77 -0.0195,21.54006 0.0205,32.31006 0.08,3.4 -0.58012,7.13008 -3.12012,9.58007 -1.57,1.52 -4.45953,1.84964 -4.76953,4.36964 12.05,0.21999 24.10966,0.0101 36.15967,0.12011 1.67,-0.27 4.02982,0.65029 5.06982,-1.19971 -3.06,-1.78999 -6.85033,-2.05918 -9.59033,-4.40917 -2.19,-1.8 -3.61002,-4.56065 -3.52002,-7.41065 -0.03,-11.7 -0.0388,-23.40033 -0.009,-35.09033 -0.09,-4 2.28935,-8.039 6.08935,-9.479 1.6,-0.86001 3.99053,-1.10126 4.29053,-3.28125 -10.18,-0.22001 -20.37078,0.0111 -30.55078,-0.12891 -5.01,10.89 -9.76946,21.88957 -14.68946,32.80957 -4.98999,-10.94 -9.73002,-22.00969 -14.77002,-32.92969 z"/>
      <path d="m 464.40883,341.62783 c -1.39922,-0.005 -2.80599,0.0478 -4.021,0.82031 1.63001,1.29 3.57044,2.04969 5.44043,2.92969 3.42,1.6 5.41936,5.44088 5.33936,9.15088 0.03,11.66 0.01,23.32951 0,34.99951 0.19,4.56 -3.41891,8.45969 -7.6289,9.67969 -1.83,0.92 -4.9102,0.71055 -5.2002,3.31054 15.3,0.10001 30.59941,0.10023 45.89941,0.0103 -0.16,-2.33 -2.69033,-2.32076 -4.34033,-3.03076 -4.05,-1.02 -7.85916,-4.17902 -8.38916,-8.49902 -0.27,-4.11 -0.0301,-8.23131 -0.12012,-12.34131 6.76,0 13.79943,0.3309 20.16944,-2.3291 5.59999,-2.17 11.08995,-6.01084 13.20996,-11.86084 1.86,-4.97 0.0799,-10.67936 -3.58008,-14.33936 -5.77,-5.9 -14.26912,-8.36973 -22.34913,-8.46972 -11.01,-0.05 -22.031,0.0292 -33.041,-0.0308 -0.4575,0.01 -0.92227,0.002 -1.38868,0 z m 27.00879,4.27002 c 5.83,0.33 11.01109,4.54965 12.62109,10.13965 1.67,5.28 -0.28039,11.29065 -4.40039,14.91064 -1.24,0.61001 -2.37097,1.38065 -3.50098,2.16065 -1.53999,0.52 -3.10947,0.88914 -4.70947,1.11914 -0.05,-9.45 -0.0302,-18.89008 -0.0103,-28.33008 z"/>
      <path d="m 604.57826,340.18789 c 0.89,2.03 1.78991,4.07037 2.6499,6.13037 -2.35999,5.11 -4.66012,10.24016 -6.87011,15.41015 -0.44,0.97001 -0.89008,1.9304 -1.33008,2.9004 -4.27,9.48999 -8.4395,19.02 -12.7295,28.5 -1.26,2.82999 -3.59109,5.24961 -6.62109,6.0996 -1.86,0.86001 -4.71879,0.74948 -5.25879,3.20948 7.45,0.32 14.91963,0.0399 22.36963,0.16992 1.68,-0.24 3.95957,0.59106 5.05958,-1.16894 -2.89001,-2.08 -8.27052,-1.63135 -9.02052,-5.88135 0.20001,-4.7 3.06056,-8.74902 4.81055,-12.99903 8.61001,0.14001 17.21985,-0.0109 25.83985,0.0791 1.47999,3.65 3.45031,7.12015 4.57031,10.91016 0.74,2.22999 -0.50932,4.80042 -2.79932,5.44042 -2.01,1.07 -5.29059,0.79028 -5.85058,3.53027 13.6,0.05 27.21052,0.21918 40.81057,-0.0908 -0.59002,-2.45001 -3.46057,-2.35998 -5.33062,-3.22998 -3.36,-0.91001 -5.66963,-3.78967 -6.90968,-6.90967 -7.70992,-17.37 -15.4599,-34.7301 -23.18991,-52.1001 -6.73998,-0.01 -13.47019,-0.01 -20.20019,0 z m 5.90918,13.31983 c 3.43,7.71999 6.88078,15.42039 10.30078,23.15038 h -20.60009 c 3.42,-7.72 6.84931,-15.44038 10.29931,-23.15038 z"/>
      <path d="m 744.74626,341.63369 c -6.8766,-0.0346 -13.74555,1.59473 -19.70805,5.09472 -7.94002,4.52001 -14.0997,12.56026 -15.21975,21.76026 -0.78997,5.1 0.3795,10.2195 2.16945,14.97949 0.23003,0.33 0.7107,0.98983 0.9507,1.31983 5.40998,10.63 17.19885,16.94066 28.85888,17.68066 10.14,0.66 21.35107,-1.74058 28.37107,-9.60059 2.45003,-2.97 5.0787,-6.42949 4.90875,-10.47949 -2.46,2.42001 -3.9591,5.67928 -6.76905,7.75928 -8.38005,7.04 -21.9006,6.08 -29.62065,-1.5 -10.35,-9.89 -8.93025,-29.16899 2.6997,-37.45898 7.32,-5.18001 18.21075,-4.06045 24.49073,2.28954 2.95005,2.65001 4.51057,6.37002 6.83062,9.52002 0.90998,-5.89999 0.51983,-11.97078 -0.6402,-17.80077 -2.37997,0.19999 -4.71007,0.84087 -7.1001,0.90087 -2.77995,-0.54999 -5.34022,-1.8499 -8.03025,-2.6499 -3.9375,-1.17375 -8.06595,-1.79414 -12.19185,-1.81494 z"/>
      <path d="m 829.28821,341.63808 c -0.0203,6.13001 0.0292,12.25086 -0.0308,18.38087 1.2,0.12 2.4009,0.009 2.69093,-1.4209 1.31002,-2.84 2.39895,-6.02954 5.20897,-7.76954 4.76003,-3.48 10.9602,-2.09961 16.4502,-2.3496 -0.01,13.69999 0.0195,27.38886 -0.0105,41.08886 0.17003,4.65 -3.59865,8.58975 -7.90867,9.73975 -1.77998,0.81 -4.5303,0.76107 -5.03025,3.10107 15.42,0.18 30.89932,0.51008 46.29929,-0.16992 -2.1,-3.28 -6.96037,-2.44095 -9.59032,-5.23095 -5.85,-4.81001 -2.64923,-13.07905 -3.65918,-19.51905 -0.01,-0.45 -0.03,-1.34004 -0.0495,-1.79004 0.40995,-9.06 0.0503,-18.14973 0.18015,-27.21972 5.91998,0.18 12.90008,-1.22036 17.6001,3.38964 3.00998,2.22 2.62005,7.02022 6.06008,8.72022 1.17,-6.22 0.23002,-12.65069 0.51997,-18.95069 -22.90995,-0.01 -45.82042,0.01 -68.73044,0 z"/>
   </g>
</svg>